# xmcd
#
# Track frame offsets:
#	150
#	12080
#	25064
#	40362
#	56838
#	73082
#	89201
#	107970
#	125220
#	147263
#	162478
#	177056
#	189978
#	208471
#	225422
#	238247
#	254464
#	266464
#	281288
#	293418
#	303235
#	317453
#	332786
#	347271
#
# Disc length: 4787 seconds
#
# Revision: 0
# Processed by: cddbd v1.5.2PL0 Copyright (c) Steve Scherf et al.
# Submitted via: EasyCDDAExtractor 16.0.6.1
#
DISCID=6512b118
DTITLE=Συλλογικός δίσκος - Το νησιώτικο τραγούδι είναι εδώ 2
DYEAR=1900
DGENRE=Πραδοσιακή
TTITLE0=Γιαννούλης Ματθαίος - Θέλεις να τα φτιάξουμε;
TTITLE1=Γιαννούλης Ματθαίος - Στο τηλέφωνο σε παίρνω
TTITLE2=Γιαννούλης Ματθαίος - Στο λόγο της τιμής μου
TTITLE3=Γιαννούλης Ματθαίος - Τώρα πετώ
TTITLE4=Γιαννούλης Ματθαίος - Ξενιτεμένο μου πουλί
TTITLE5=Γιαννούλης Ματθαίος - Θερμιώτικο
TTITLE6=Γιαννούλης Ματθαίος - Πατινάδα
TTITLE7=Νομικού Μαρία - Θύελλα και τρικυμία
TTITLE8=Νομικού Μαρία - Θαλασσοταραχή
TTITLE9=Νομικού Μαρία - Και με πιάνει μιά τρέλλα
TTITLE10=Νομικού Μαρία - Το αγόρι από τη Νάξο
TTITLE11=Κονιτόπουλος Βαγγέλης - Όταν χαράζει στο Αιγαίο [μουσ. στ. Λευτ. Βαζα
TTITLE11=ίος]
TTITLE12=Κονιτόπουλος Βαγγέλης - Ταραξίας [Βαγγ. Κονιτόπουλος-Βοριάς]
TTITLE13=Μελισσουργού Κούλα - Αν είναι δυνατόν [Ματθ. Γιαννούλης-Θ. Περιστεράκ
TTITLE13=ης]
TTITLE14=Μελισσουργού Κούλα - Θα με περιμένεις [Ματθ. Γιαννούλης-Θ. Περιστεράκ
TTITLE14=ης]
TTITLE15=Σαβέρης Φίλιππας - Φεγγάρια δακτυλίδια [Φίλ. Σαβέρης-Κωνσταντίνα Καβρ
TTITLE15=έντζου]
TTITLE16=Σαβέρης Φίλιππας - Φτάνει, φτάνει
TTITLE17=Σαβέρης Φίλιππας - Άμα θα γυρίσεις, άμα
TTITLE18=Σαβέρης Φίλιππας - Πάλι, πάλι
TTITLE19=Νίκα Έλσα - Παραδοσιακός Απιράνθου
TTITLE20=Νίκα Έλσα - Θάλασσα
TTITLE21=Κονδύλης Μανώλης - Είσαι αγάπη που δεν τελειώνει [Μ. Κονδύλης-ιδίου κ
TTITLE21=Στ. Χατζόπουλος]
TTITLE22=Κονδύλης Μανώλης - Ταξείδια στη Μεσόγειο [Μ. Κονδύλης]
TTITLE23=Λιβανού Καίτη - Κι έγινε η νύχτα μέρα [Σταμάτης Χατζόπουλος]
EXTD=
EXTT0=
EXTT1=
EXTT2=
EXTT3=
EXTT4=
EXTT5=
EXTT6=
EXTT7=
EXTT8=
EXTT9=
EXTT10=
EXTT11=
EXTT12=
EXTT13=
EXTT14=
EXTT15=
EXTT16=
EXTT17=
EXTT18=
EXTT19=
EXTT20=
EXTT21=
EXTT22=
EXTT23=
PLAYORDER=
